<svg width="102" height="77" viewBox="0 0 102 77" fill="none" xmlns="http://www.w3.org/2000/svg">
<path d="M52.9106 55.1583L57.7447 75.2875H101.222C101.652 75.2875 102 74.9409 102 74.5134V56.1389C102 56.5662 52.9106 55.1583 52.9106 55.1583Z" fill="#78C2A4"/>
<path d="M47.281 54.3958C47.281 54.3958 0 56.5662 0 56.1387V74.5132C0 74.9407 0.348434 75.2873 0.778148 75.2873H44.2556L47.281 54.3958Z" fill="#78C2A4"/>
<path d="M0.778148 1.71265C0.348434 1.71265 0 2.05926 0 2.48694V56.1389C0 56.5664 0.348434 56.913 0.778148 56.913H44.2556L49.6624 1.71284H0.778148V1.71265Z" fill="#95D6A4"/>
<path d="M101.222 1.71265H57.7442L52.2607 56.9128H101.222C101.652 56.9128 102 56.5662 102 56.1387V2.48694C102 2.05926 101.651 1.71265 101.222 1.71265Z" fill="#95D6A4"/>
<path d="M47.9306 7.84412H15.2591C15.0342 7.84412 14.8453 8.01832 14.8352 8.24186C14.6322 12.6946 11.0395 16.2686 6.56341 16.4703C6.33869 16.4804 6.16357 16.6683 6.16357 16.892V41.7334C6.16357 41.9571 6.33869 42.145 6.56341 42.1551C11.0395 42.3568 14.6322 45.9308 14.8352 50.3835C14.8453 50.6071 15.0342 50.7813 15.2591 50.7813H44.2556L47.9306 7.84412Z" fill="#CCF49F"/>
<path d="M95.4366 16.4706C90.9605 16.2688 87.3678 12.6948 87.1648 8.24211C87.1547 8.01856 86.9658 7.84436 86.7409 7.84436H54.1011L57.7444 50.7815H86.7409C86.9658 50.7815 87.1547 50.6073 87.1648 50.3838C87.3678 45.9311 90.9605 42.3571 95.4366 42.1553C95.6613 42.1452 95.8364 41.9573 95.8364 41.7336V16.8921C95.8364 16.6683 95.6613 16.4807 95.4366 16.4706Z" fill="#CCF49F"/>
<path d="M13.8145 46.6983C14.4123 47.8044 14.7747 49.0549 14.8353 50.3837C14.8454 50.6072 15.0343 50.7814 15.2592 50.7814H47.281L44.2557 46.6981H13.8145V46.6983Z" fill="#B3E59F"/>
<path d="M95.4365 16.4706C90.9605 16.2688 87.3678 12.6948 87.1648 8.24211C87.1546 8.01856 86.9658 7.84436 86.7408 7.84436H79.9764C81.3817 10.4445 84.087 12.2459 87.2273 12.3874C87.452 12.3976 87.6272 12.5854 87.6272 12.8092V32.021C87.6272 35.0101 85.9549 37.709 83.3428 39.1864C81.9815 39.9563 80.8497 41.082 80.0758 42.4363C78.5906 45.0349 75.8776 46.6984 72.8728 46.6984H55.1836L57.7444 50.7817H86.7408C86.9658 50.7817 87.1546 50.6075 87.1648 50.384C87.3678 45.9313 90.9605 42.3573 95.4365 42.1555C95.6613 42.1454 95.8364 41.9575 95.8364 41.7338V16.8921C95.8364 16.6683 95.6613 16.4807 95.4365 16.4706Z" fill="#B3E59F"/>
<path d="M24.3433 31.9551H15.795C14.9228 31.9551 14.2158 31.2518 14.2158 30.3841V28.241C14.2158 27.3734 14.9228 26.67 15.795 26.67H24.3433C25.2155 26.67 25.9225 27.3734 25.9225 28.241V30.3841C25.9225 31.252 25.2155 31.9551 24.3433 31.9551Z" fill="#95D6A4"/>
<path d="M77.6568 31.9551H86.2051C87.0773 31.9551 87.7843 31.2518 87.7843 30.3841V28.241C87.7843 27.3734 87.0773 26.67 86.2051 26.67H77.6568C76.7847 26.67 76.0776 27.3734 76.0776 28.241V30.3841C76.0776 31.252 76.7847 31.9551 77.6568 31.9551Z" fill="#95D6A4"/>
<path d="M44.2555 14.3896C38.5371 16.9511 34.5562 22.6694 34.5562 29.3128C34.5562 35.9562 38.5371 41.6745 44.2555 44.236L47.2809 26.2442L44.2555 14.3896Z" fill="#95D6A4"/>
<path d="M57.7442 14.3896L55.1835 24.3446L57.7442 44.2358C63.4626 41.6743 67.4436 35.956 67.4436 29.3126C67.4436 22.6694 63.4626 16.9511 57.7442 14.3896Z" fill="#95D6A4"/>
<path d="M44.4612 64.5695H5.33604C4.48577 64.5695 3.79688 63.884 3.79688 63.0383C3.79688 62.1927 4.48597 61.5072 5.33604 61.5072H44.4612C45.3115 61.5072 46.0004 62.1927 46.0004 63.0383C46.0004 63.884 45.3115 64.5695 44.4612 64.5695Z" fill="#66B394"/>
<path d="M96.6638 64.5695H57.5387C56.6884 64.5695 55.9995 63.884 55.9995 63.0383C55.9995 62.1927 56.6886 61.5072 57.5387 61.5072H96.6638C97.5141 61.5072 98.203 62.1927 98.203 63.0383C98.2032 63.884 97.5141 64.5695 96.6638 64.5695Z" fill="#66B394"/>
<path d="M44.4612 70.6942H5.33604C4.48577 70.6942 3.79688 70.0087 3.79688 69.1631C3.79688 68.3175 4.48597 67.632 5.33604 67.632H44.4612C45.3115 67.632 46.0004 68.3175 46.0004 69.1631C46.0004 70.0087 45.3115 70.6942 44.4612 70.6942Z" fill="#66B394"/>
<path d="M96.6638 70.6942H57.5387C56.6884 70.6942 55.9995 70.0087 55.9995 69.1631C55.9995 68.3175 56.6886 67.632 57.5387 67.632H96.6638C97.5141 67.632 98.203 68.3175 98.203 69.1631C98.203 70.0087 97.5141 70.6942 96.6638 70.6942Z" fill="#66B394"/>
<path d="M57.7446 56.9129L51.0002 51.241L44.2559 56.9129V76.5074C44.2559 76.7795 44.4776 77.0001 44.7511 77.0001H57.2491C57.5226 77.0001 57.7444 76.7795 57.7444 76.5074V56.9129H57.7446Z" fill="#FFE07D"/>
<path d="M57.7444 56.9128H44.2559V0.492677C44.2559 0.220575 44.4776 0 44.7511 0H57.2491C57.5226 0 57.7444 0.220575 57.7444 0.492677V56.9128Z" fill="#FFF0AF"/>
</svg>
