<svg width="102" height="77" viewBox="0 0 102 77" fill="none" xmlns="http://www.w3.org/2000/svg">
<path d="M52.9106 55.1584L57.7447 75.2875H101.222C101.652 75.2875 102 74.9409 102 74.5135V56.139C102 56.5662 52.9106 55.1584 52.9106 55.1584Z" fill="#C2C2C2"/>
<path d="M47.281 54.3958C47.281 54.3958 0 56.5662 0 56.1388V74.5132C0 74.9407 0.348434 75.2873 0.778148 75.2873H44.2556L47.281 54.3958Z" fill="#C2C2C2"/>
<path d="M0.778148 1.71271C0.348434 1.71271 0 2.05932 0 2.487V56.139C0 56.5665 0.348434 56.9131 0.778148 56.9131H44.2556L49.6624 1.71291H0.778148V1.71271Z" fill="#D6D6D6"/>
<path d="M101.222 1.71271H57.7442L52.2607 56.9129H101.222C101.652 56.9129 102 56.5663 102 56.1388V2.487C102 2.05932 101.651 1.71271 101.222 1.71271Z" fill="#D6D6D6"/>
<path d="M47.9306 7.84415H15.2591C15.0342 7.84415 14.8453 8.01835 14.8352 8.24189C14.6322 12.6946 11.0395 16.2686 6.56341 16.4703C6.33869 16.4805 6.16357 16.6683 6.16357 16.8921V41.7334C6.16357 41.9571 6.33869 42.145 6.56341 42.1551C11.0395 42.3569 14.6322 45.9309 14.8352 50.3836C14.8453 50.6071 15.0342 50.7813 15.2591 50.7813H44.2556L47.9306 7.84415Z" fill="#F4F4F4"/>
<path d="M95.4366 16.4706C90.9605 16.2688 87.3678 12.6949 87.1648 8.24214C87.1547 8.01859 86.9658 7.84439 86.7409 7.84439H54.1011L57.7444 50.7816H86.7409C86.9658 50.7816 87.1547 50.6073 87.1648 50.3838C87.3678 45.9311 90.9605 42.3571 95.4366 42.1554C95.6613 42.1452 95.8364 41.9574 95.8364 41.7336V16.8921C95.8364 16.6684 95.6613 16.4807 95.4366 16.4706Z" fill="#F4F4F4"/>
<path d="M13.8145 46.6983C14.4123 47.8043 14.7747 49.0548 14.8353 50.3836C14.8454 50.6072 15.0343 50.7814 15.2592 50.7814H47.281L44.2557 46.6981H13.8145V46.6983Z" fill="#E5E5E5"/>
<path d="M95.4365 16.4706C90.9605 16.2688 87.3678 12.6949 87.1648 8.24214C87.1546 8.01859 86.9658 7.84439 86.7408 7.84439H79.9764C81.3817 10.4445 84.087 12.246 87.2273 12.3875C87.452 12.3976 87.6272 12.5855 87.6272 12.8092V32.021C87.6272 35.0102 85.9549 37.709 83.3428 39.1864C81.9815 39.9564 80.8497 41.082 80.0758 42.4364C78.5906 45.0349 75.8776 46.6984 72.8728 46.6984H55.1836L57.7444 50.7817H86.7408C86.9658 50.7817 87.1546 50.6076 87.1648 50.384C87.3678 45.9313 90.9605 42.3573 95.4365 42.1556C95.6613 42.1455 95.8364 41.9576 95.8364 41.7338V16.8921C95.8364 16.6684 95.6613 16.4807 95.4365 16.4706Z" fill="#E5E5E5"/>
<path d="M24.3433 31.9552H15.795C14.9228 31.9552 14.2158 31.2518 14.2158 30.3842V28.2411C14.2158 27.3735 14.9228 26.6701 15.795 26.6701H24.3433C25.2155 26.6701 25.9225 27.3735 25.9225 28.2411V30.3842C25.9225 31.252 25.2155 31.9552 24.3433 31.9552Z" fill="#D6D6D6"/>
<path d="M77.6568 31.9552H86.2051C87.0773 31.9552 87.7843 31.2518 87.7843 30.3842V28.2411C87.7843 27.3735 87.0773 26.6701 86.2051 26.6701H77.6568C76.7847 26.6701 76.0776 27.3735 76.0776 28.2411V30.3842C76.0776 31.252 76.7847 31.9552 77.6568 31.9552Z" fill="#D6D6D6"/>
<path d="M44.2555 14.3897C38.5371 16.9512 34.5562 22.6695 34.5562 29.3129C34.5562 35.9563 38.5371 41.6746 44.2555 44.236L47.2809 26.2442L44.2555 14.3897Z" fill="#D6D6D6"/>
<path d="M57.7444 14.3897L55.1836 24.3447L57.7444 44.2358C63.4627 41.6744 67.4437 35.9561 67.4437 29.3127C67.4437 22.6695 63.4627 16.9512 57.7444 14.3897Z" fill="#D6D6D6"/>
<path d="M44.4612 64.5695H5.33604C4.48577 64.5695 3.79688 63.884 3.79688 63.0383C3.79688 62.1927 4.48597 61.5072 5.33604 61.5072H44.4612C45.3115 61.5072 46.0004 62.1927 46.0004 63.0383C46.0004 63.884 45.3115 64.5695 44.4612 64.5695Z" fill="#B3B3B3"/>
<path d="M96.6638 64.5695H57.5387C56.6884 64.5695 55.9995 63.884 55.9995 63.0383C55.9995 62.1927 56.6886 61.5072 57.5387 61.5072H96.6638C97.5141 61.5072 98.203 62.1927 98.203 63.0383C98.2032 63.884 97.5141 64.5695 96.6638 64.5695Z" fill="#B3B3B3"/>
<path d="M44.4612 70.6942H5.33604C4.48577 70.6942 3.79688 70.0087 3.79688 69.1631C3.79688 68.3175 4.48597 67.632 5.33604 67.632H44.4612C45.3115 67.632 46.0004 68.3175 46.0004 69.1631C46.0004 70.0087 45.3115 70.6942 44.4612 70.6942Z" fill="#B3B3B3"/>
<path d="M96.6638 70.6942H57.5387C56.6884 70.6942 55.9995 70.0087 55.9995 69.1631C55.9995 68.3175 56.6886 67.632 57.5387 67.632H96.6638C97.5141 67.632 98.203 68.3175 98.203 69.1631C98.203 70.0087 97.5141 70.6942 96.6638 70.6942Z" fill="#B3B3B3"/>
<path d="M57.7446 56.9128L51.0002 51.2409L44.2559 56.9128V76.5073C44.2559 76.7794 44.4776 77 44.7511 77H57.2491C57.5226 77 57.7444 76.7794 57.7444 76.5073V56.9128H57.7446Z" fill="white"/>
<path d="M57.7444 56.9128H44.2559V0.492677C44.2559 0.220575 44.4776 0 44.7511 0H57.2491C57.5226 0 57.7444 0.220575 57.7444 0.492677V56.9128Z" fill="white"/>
</svg>
