<svg width="48" height="48" viewBox="0 0 48 48" fill="none" xmlns="http://www.w3.org/2000/svg">
<path d="M6 12H10H42" stroke="#787880" stroke-width="3" stroke-linecap="round" stroke-linejoin="round"/>
<path d="M16 12V8C16 6.93913 16.4214 5.92172 17.1716 5.17157C17.9217 4.42143 18.9391 4 20 4H28C29.0609 4 30.0783 4.42143 30.8284 5.17157C31.5786 5.92172 32 6.93913 32 8V12M38 12V40C38 41.0609 37.5786 42.0783 36.8284 42.8284C36.0783 43.5786 35.0609 44 34 44H14C12.9391 44 11.9217 43.5786 11.1716 42.8284C10.4214 42.0783 10 41.0609 10 40V12H38Z" stroke="#787880" stroke-width="3" stroke-linecap="round" stroke-linejoin="round"/>
</svg>
